<svg xmlns="http://www.w3.org/2000/svg" xmlns:xlink="http://www.w3.org/1999/xlink" version="1.1" x="0px" y="0px" viewBox="0 0 100 125" enable-background="new 0 0 100 100" xml:space="preserve"><g><path d="M90.22,37.988c-1.116-1.714-2.607-2.444-4.988-2.444h-3.856c2.705-0.479,4.767-2.844,4.767-5.688   c0-3.186-2.588-5.775-5.771-5.775c-3.188,0-5.784,2.59-5.784,5.775c0,2.844,2.068,5.208,4.777,5.688h-2.732   c-2.143,0-2.493-0.255-3.329-1.554l-3.016-4.727c-0.505-0.786-1.475-1.275-2.532-1.275c-1.624,0-2.896,1.086-2.896,2.473   c0,0.418,0.123,0.832,0.355,1.197l0.051-0.033c0.288,0.552,0.92,1.518,2.165,3.422l2.209,3.377c0.955,1.465,2.185,2.212,4.01,2.396   v28.233c0,0.191,0.088,1.878,3.127,1.878c3.047,0,3.135-1.687,3.135-1.878V53.487h0.908v15.566c0,0.191,0.088,1.878,3.125,1.878   c3.041,0,3.129-1.687,3.129-1.878V43.237l2.504,3.918c0.512,0.785,1.48,1.274,2.528,1.274c1.624,0,2.896-1.09,2.896-2.479   c0-0.416-0.122-0.827-0.361-1.203L90.22,37.988z M76.543,29.856c0-2.106,1.717-3.819,3.827-3.819c2.104,0,3.815,1.713,3.815,3.819   c0,2.109-1.712,3.824-3.815,3.824C78.26,33.681,76.543,31.966,76.543,29.856z M92.104,46.473c-0.438,0-0.769-0.199-0.885-0.379   l-4.302-6.73c-0.234-0.366-0.68-0.537-1.099-0.412c-0.417,0.122-0.704,0.504-0.704,0.938v28.911   c-0.138,0.066-0.47,0.174-1.172,0.174c-0.7,0-1.031-0.106-1.169-0.172V52.509c0-0.541-0.437-0.979-0.978-0.979h-2.865   c-0.541,0-0.979,0.438-0.979,0.979v16.292c-0.139,0.066-0.472,0.174-1.178,0.174c-0.701,0-1.033-0.107-1.171-0.172V39.89   c0-0.541-0.438-0.979-0.979-0.979c-1.953,0-2.706-0.57-3.349-1.558c0,0-4.267-6.52-4.412-6.745c0-0.001-0.001-0.001-0.001-0.002   c-0.033-0.051-0.05-0.101-0.05-0.146c0-0.21,0.366-0.517,0.939-0.517c0.445,0,0.765,0.189,0.885,0.374l3.016,4.728   c1.255,1.95,2.278,2.455,4.977,2.455h8.601c1.952,0,2.707,0.57,3.35,1.557l4.413,6.751c0.033,0.051,0.049,0.099,0.049,0.143   C93.043,46.163,92.677,46.473,92.104,46.473z"/><path d="M5.979,45.99H60.85c0.54,0,0.977-0.438,0.977-0.979v-29.93c0-0.541-0.437-0.978-0.977-0.978H5.979   C5.438,14.104,5,14.541,5,15.082v29.93C5,45.553,5.438,45.99,5.979,45.99z M6.957,16.061h52.914v27.974H6.957V16.061z"/><path d="M39.38,62.471c0-3.29-2.677-5.967-5.966-5.967c-3.291,0-5.968,2.677-5.968,5.967s2.677,5.967,5.968,5.967   C36.703,68.438,39.38,65.761,39.38,62.471z M29.403,62.471c0-2.212,1.799-4.01,4.011-4.01c2.211,0,4.009,1.798,4.009,4.01   c0,2.211-1.798,4.01-4.009,4.01C31.202,66.48,29.403,64.682,29.403,62.471z"/><path d="M24.953,69.953v14.965c0,0.54,0.438,0.978,0.979,0.978h14.964c0.54,0,0.979-0.438,0.979-0.978V69.953   c0-0.541-0.438-0.979-0.979-0.979H25.932C25.391,68.975,24.953,69.412,24.953,69.953z M26.91,70.932h13.008v13.008H26.91V70.932z"/><path d="M59.333,62.471c0-3.29-2.678-5.967-5.967-5.967c-3.291,0-5.967,2.677-5.967,5.967s2.676,5.967,5.967,5.967   C56.655,68.438,59.333,65.761,59.333,62.471z M49.356,62.471c0-2.212,1.799-4.01,4.01-4.01s4.011,1.798,4.011,4.01   c0,2.211-1.8,4.01-4.011,4.01S49.356,64.682,49.356,62.471z"/><path d="M44.905,69.953v14.965c0,0.54,0.438,0.978,0.979,0.978H60.85c0.54,0,0.977-0.438,0.977-0.978V69.953   c0-0.541-0.437-0.979-0.977-0.979H45.884C45.343,68.975,44.905,69.412,44.905,69.953z M46.862,70.932h13.009v13.008H46.862V70.932z   "/><path d="M7.494,62.471c0,3.29,2.676,5.967,5.967,5.967c3.289,0,5.967-2.677,5.967-5.967s-2.678-5.967-5.967-5.967   C10.17,56.504,7.494,59.181,7.494,62.471z M17.471,62.471c0,2.211-1.798,4.01-4.01,4.01c-2.211,0-4.01-1.799-4.01-4.01   c0-2.212,1.799-4.01,4.01-4.01C15.673,58.461,17.471,60.259,17.471,62.471z"/><path d="M21.921,84.918V69.953c0-0.541-0.438-0.979-0.979-0.979H5.979C5.438,68.975,5,69.412,5,69.953v14.965   c0,0.54,0.438,0.978,0.979,0.978h14.964C21.483,85.896,21.921,85.458,21.921,84.918z M19.965,83.939H6.957V70.932h13.008V83.939z"/><rect x="20.942" y="24.081" width="24.941" height="1.956"/><rect x="20.942" y="29.068" width="24.941" height="1.957"/><rect x="20.942" y="34.058" width="24.941" height="1.956"/></g><text x="0" y="115" fill="#000000" font-size="5px" font-weight="bold" font-family="'Helvetica Neue', Helvetica, Arial-Unicode, Arial, Sans-serif">Created by Tran</text><text x="0" y="120" fill="#000000" font-size="5px" font-weight="bold" font-family="'Helvetica Neue', Helvetica, Arial-Unicode, Arial, Sans-serif">from the Noun Project</text></svg>