<svg xmlns="http://www.w3.org/2000/svg" xmlns:xlink="http://www.w3.org/1999/xlink" version="1.1" x="0px" y="0px" viewBox="0 0 100 125" enable-background="new 0 0 100 100" xml:space="preserve"><path d="M86.0310059,15.1811523H68.8503418V8c0-0.8286133-0.671875-1.5-1.5-1.5s-1.5,0.6713867-1.5,1.5v7.1811523H34.1491699V8  c0-0.8286133-0.6713867-1.5-1.5-1.5s-1.5,0.6713867-1.5,1.5v7.1811523H13.9689941c-1.9296875,0-3.5,1.5703125-3.5,3.5V90  c0,1.9296875,1.5703125,3.5,3.5,3.5h72.0620117c1.9296875,0,3.5-1.5703125,3.5-3.5V18.6811523  C89.5310059,16.7514648,87.9606934,15.1811523,86.0310059,15.1811523z M86.5310059,90c0,0.2753906-0.2246094,0.5-0.5,0.5H13.9689941  c-0.2758789,0-0.5-0.2246094-0.5-0.5V18.6811523c0-0.2758789,0.2241211-0.5,0.5-0.5h17.1801758v2.4150391  c0,0.8286133,0.6713867,1.5,1.5,1.5s1.5-0.6713867,1.5-1.5v-2.4150391h31.7011719v2.4150391c0,0.8286133,0.671875,1.5,1.5,1.5  s1.5-0.6713867,1.5-1.5v-2.4150391h17.1806641c0.2753906,0,0.5,0.2241211,0.5,0.5V90z M25.0476074,29.6689453  c0-0.8286133,0.6713867-1.5,1.5-1.5h46.9042969c0.828125,0,1.5,0.6713867,1.5,1.5s-0.671875,1.5-1.5,1.5H26.5476074  C25.7189941,31.1689453,25.0476074,30.4975586,25.0476074,29.6689453z M77.385498,36.6196289H22.6140137  c-1.378418,0-2.5,1.121582-2.5,2.5v43.4174805c0,1.3789063,1.121582,2.5,2.5,2.5H77.385498c1.3789063,0,2.5-1.1210938,2.5-2.5  V39.1196289C79.885498,37.7412109,78.7644043,36.6196289,77.385498,36.6196289z M68.5310059,39.6196289h1.458313  l-1.458313,1.4581909V39.6196289z M68.5310059,42.9169922l3.2973633-3.2973633h2.0830078L68.5310059,45V42.9169922z   M57.1774902,39.6196289h1.4993286l-1.4993286,1.4992065V39.6196289z M57.1774902,42.9580078l3.3383789-3.3383789h2.0830078  l-5.4213867,5.4213867V42.9580078z M45.8225098,39.6196289h1.5419922l-1.5419922,1.5419922V39.6196289z M45.8225098,42.999939  l3.3799438-3.3803101h2.0841064l-5.4640503,5.4646606V42.999939z M34.4685059,50.9746094h1.5194092l-1.5194092,1.5192261V50.9746094  z M34.4685059,54.3326416l3.3583374-3.3580322h2.0840454l-5.4423828,5.4423828V54.3326416z M23.1140137,50.9746094h1.5614014  l-1.5614014,1.5612183V50.9746094z M23.1140137,54.3746338l3.4003296-3.4000244h2.0840454l-5.484375,5.484375V54.3746338z   M31.4685059,82.0371094h-8.3544922v-8.3535156h8.3544922V82.0371094z M31.4685059,70.6835938h-8.3544922v-8.3544922h8.3544922  V70.6835938z M31.4685059,59.3291016h-1.5395508l1.5395508-1.5395508V59.3291016z M31.4685059,55.9506836l-3.378418,3.378418  h-2.0839844l5.4624023-5.4624023V55.9506836z M31.4685059,52.027832l-7.3012695,7.3012695h-1.0532227v-1.03125l7.3232422-7.3232422  h1.03125V52.027832z M31.4685059,47.9746094h-8.3544922v-8.3549805h8.3544922V47.9746094z M42.8225098,82.0371094h-8.3540039  v-8.3535156h8.3540039V82.0371094z M42.8225098,70.6835938h-8.3540039v-8.3544922h8.3540039V70.6835938z M42.8225098,59.3291016  h-1.5810547l1.5810547-1.5810547V59.3291016z M42.8225098,55.9091797l-3.4199219,3.4199219h-2.0839844l5.5039063-5.5039063  V55.9091797z M42.8225098,51.9863281l-7.3427734,7.3427734h-1.0112305v-1.0732422l7.28125-7.28125h1.0727539V51.9863281z   M42.8225098,47.9746094h-8.3540039v-8.3549805h8.3540039V47.9746094z M54.1774902,82.0371094h-8.3549805v-8.3535156h8.3549805  V82.0371094z M54.1774902,70.6835938h-8.3549805v-8.3544922h8.3549805V70.6835938z M54.1774902,59.3291016h-8.3549805v-8.3544922  h8.3549805V59.3291016z M54.1774902,47.9746094h-1.5605469l1.5605469-1.5605469V47.9746094z M54.1774902,44.5743408  l-3.3999634,3.4002686h-2.0839233l5.4838867-5.4838867V44.5743408z M54.1774902,40.6518555l-7.3227539,7.3227539h-1.0322266  v-1.0513306l7.3027954-7.3036499h1.0521851V40.6518555z M65.5310059,82.0371094h-8.3535156v-8.3535156h8.3535156V82.0371094z   M65.5310059,70.6835938h-8.3535156v-8.3544922h8.3535156V70.6835938z M65.5310059,59.3291016h-8.3535156v-8.3544922h8.3535156  V59.3291016z M65.5310059,47.9746094h-1.6015625l1.6015625-1.6015625V47.9746094z M65.5310059,44.5332031l-3.4414063,3.4414063  h-2.0830688l5.5244751-5.5248413V44.5332031z M65.5310059,40.6107788l-7.3642578,7.3638306h-0.9892578v-1.093811  l7.2603149-7.2611694h1.0932007V40.6107788z M76.885498,82.0371094h-8.3544922v-8.3535156h8.3544922V82.0371094z   M76.885498,70.6835938h-8.3544922v-8.3544922h8.3544922V70.6835938z M76.885498,59.3291016h-8.3544922v-8.3544922h8.3544922  V59.3291016z M76.885498,47.9746094h-1.6435547l1.6435547-1.6435547V47.9746094z M76.885498,44.4912109l-3.4833984,3.4833984  h-2.0830688l5.5664673-5.5668335V44.4912109z M76.885498,40.5687866l-7.40625,7.4058228h-0.9482422v-1.1348267l7.2192993-7.2201538  h1.1351929V40.5687866z"/><text x="0" y="115" fill="#000000" font-size="5px" font-weight="bold" font-family="'Helvetica Neue', Helvetica, Arial-Unicode, Arial, Sans-serif">Created by Llisole</text><text x="0" y="120" fill="#000000" font-size="5px" font-weight="bold" font-family="'Helvetica Neue', Helvetica, Arial-Unicode, Arial, Sans-serif">from the Noun Project</text></svg>